HIERARCHY
ROOT newVegas:Hips
{
	OFFSET 0.000000 96.479958 0.000000
	CHANNELS 6 Xposition Yposition Zposition Xrotation Yrotation Zrotation
	JOINT newVegas:Pelvis
	{
		OFFSET 0.000000 0.000000 0.000000
		CHANNELS 3 Xrotation Yrotation Zrotation
		JOINT newVegas:LeftUpLeg
		{
			OFFSET 18.735201 -5.666702 -4.541200
			CHANNELS 3 Xrotation Yrotation Zrotation
			JOINT newVegas:LeftLeg
			{
				OFFSET -0.021200 -31.938179 0.493100
				CHANNELS 3 Xrotation Yrotation Zrotation
				JOINT newVegas:LeftFoot
				{
					OFFSET 0.021200 -31.938179 -4.336299
					CHANNELS 3 Xrotation Yrotation Zrotation
					JOINT newVegas:LeftToeBase
					{
						OFFSET 0.943001 -26.722000 15.023500
						CHANNELS 3 Xrotation Yrotation Zrotation
						End Site
						{
							OFFSET 0.000000 30.670183 0.000000
						}
					}
				}
				JOINT newVegas:Left_PantLeg
				{
					OFFSET 0.663870 -9.044666 -1.108900
					CHANNELS 3 Xrotation Yrotation Zrotation
					End Site
					{
						OFFSET 1.415995 20.635357 0.000000
					}
				}
			}
		}
		JOINT newVegas:RightUpLeg
		{
			OFFSET -18.735201 -5.666702 -4.541200
			CHANNELS 3 Xrotation Yrotation Zrotation
			JOINT newVegas:RightLeg
			{
				OFFSET 0.018946 -31.938133 0.493100
				CHANNELS 3 Xrotation Yrotation Zrotation
				JOINT newVegas:RightFoot
				{
					OFFSET -0.018946 -31.938126 -4.336299
					CHANNELS 3 Xrotation Yrotation Zrotation
					JOINT newVegas:RightToeBase
					{
						OFFSET -0.943001 -26.722004 15.023500
						CHANNELS 3 Xrotation Yrotation Zrotation
						End Site
						{
							OFFSET 0.000000 30.670187 0.000000
						}
					}
				}
				JOINT newVegas:Right_PantLeg
				{
					OFFSET -0.661674 -9.044716 -1.108900
					CHANNELS 3 Xrotation Yrotation Zrotation
					End Site
					{
						OFFSET -1.415958 20.635269 0.000000
					}
				}
			}
		}
	}
	JOINT newVegas:Spine
	{
		OFFSET 0.000000 10.199997 -0.299500
		CHANNELS 3 Xrotation Yrotation Zrotation
		JOINT newVegas:Spine1
		{
			OFFSET 0.000000 11.900002 -1.516600
			CHANNELS 3 Xrotation Yrotation Zrotation
			JOINT newVegas:Spine2
			{
				OFFSET 0.000000 13.600006 -2.842500
				CHANNELS 3 Xrotation Yrotation Zrotation
				JOINT newVegas:Neck
				{
					OFFSET 0.000000 9.624100 -2.890100
					CHANNELS 3 Xrotation Yrotation Zrotation
					JOINT newVegas:Head
					{
						OFFSET 0.000000 14.068802 -1.351900
						CHANNELS 3 Xrotation Yrotation Zrotation
						JOINT newVegas:Hair_Back
						{
							OFFSET 0.000000 3.231903 -17.524799
							CHANNELS 3 Xrotation Yrotation Zrotation
							End Site
							{
								OFFSET 0.000000 19.849884 0.000000
							}
						}
						JOINT newVegas:Hair_Front
						{
							OFFSET 0.000000 31.260406 4.573800
							CHANNELS 3 Xrotation Yrotation Zrotation
							JOINT newVegas:Hair_Front1
							{
								OFFSET 0.000000 2.284103 11.993300
								CHANNELS 3 Xrotation Yrotation Zrotation
								JOINT newVegas:Hair_Front2
								{
									OFFSET 0.000000 2.284103 11.993300
									CHANNELS 3 Xrotation Yrotation Zrotation
									End Site
									{
										OFFSET 0.000000 12.208862 0.000000
									}
								}
							}
						}
						JOINT newVegas:Jowel
						{
							OFFSET 0.000000 -7.458206 6.864100
							CHANNELS 3 Xrotation Yrotation Zrotation
							End Site
							{
								OFFSET 0.000000 19.849884 0.000000
							}
						}
					}
				}
				JOINT newVegas:LeftShoulder
				{
					OFFSET 15.263000 10.923401 -0.547700
					CHANNELS 3 Xrotation Yrotation Zrotation
					JOINT newVegas:LeftArm
					{
						OFFSET 25.438599 -2.830597 -13.032500
						CHANNELS 3 Xrotation Yrotation Zrotation
						JOINT newVegas:LeftForeArm
						{
							OFFSET 29.960503 0.000000 0.000000
							CHANNELS 3 Xrotation Yrotation Zrotation
							JOINT newVegas:LeftHand
							{
								OFFSET 27.849251 0.000000 0.000000
								CHANNELS 3 Xrotation Yrotation Zrotation
								JOINT newVegas:LeftHandThumb1
								{
									OFFSET 4.487587 -3.305161 6.305391
									CHANNELS 3 Xrotation Yrotation Zrotation
									JOINT newVegas:LeftHandThumb2
									{
										OFFSET 5.480453 -3.164139 3.164143
										CHANNELS 3 Xrotation Yrotation Zrotation
										JOINT newVegas:LeftHandThumb3
										{
											OFFSET 5.159721 -2.978973 2.978967
											CHANNELS 3 Xrotation Yrotation Zrotation
											End Site
											{
												OFFSET 2.494507 5.926697 1.738678
											}
										}
									}
								}
								JOINT newVegas:LeftHandIndex1
								{
									OFFSET 18.578728 -0.527832 5.208049
									CHANNELS 3 Xrotation Yrotation Zrotation
									JOINT newVegas:LeftHandIndex2
									{
										OFFSET 3.192009 0.000000 0.000000
										CHANNELS 3 Xrotation Yrotation Zrotation
										JOINT newVegas:LeftHandIndex3
										{
											OFFSET 3.835129 0.000000 0.000000
											CHANNELS 3 Xrotation Yrotation Zrotation
											End Site
											{
												OFFSET -0.034599 3.816971 0.371180
											}
										}
									}
								}
								JOINT newVegas:LeftHandMiddle1
								{
									OFFSET 18.476105 0.000000 0.000000
									CHANNELS 3 Xrotation Yrotation Zrotation
									JOINT newVegas:LeftHandMiddle2
									{
										OFFSET 3.324875 0.000000 0.000000
										CHANNELS 3 Xrotation Yrotation Zrotation
										JOINT newVegas:LeftHandMiddle3
										{
											OFFSET 4.596550 0.000000 0.000000
											CHANNELS 3 Xrotation Yrotation Zrotation
											End Site
											{
												OFFSET 0.057701 4.578827 0.399218
											}
										}
									}
								}
								JOINT newVegas:LeftHandRing1
								{
									OFFSET 17.732719 0.121887 -4.201567
									CHANNELS 3 Xrotation Yrotation Zrotation
									JOINT newVegas:LeftHandRing2
									{
										OFFSET 2.733170 0.000000 0.000000
										CHANNELS 3 Xrotation Yrotation Zrotation
										JOINT newVegas:LeftHandRing3
										{
											OFFSET 3.178268 0.000000 0.000000
											CHANNELS 3 Xrotation Yrotation Zrotation
											End Site
											{
												OFFSET 0.119102 3.170624 0.185394
											}
										}
									}
								}
								JOINT newVegas:LeftHandPinky1
								{
									OFFSET 15.989624 -0.606689 -7.535461
									CHANNELS 3 Xrotation Yrotation Zrotation
									JOINT newVegas:LeftHandPinky2
									{
										OFFSET 2.538986 0.000000 0.000000
										CHANNELS 3 Xrotation Yrotation Zrotation
										JOINT newVegas:LeftHandPinky3
										{
											OFFSET 2.593102 0.000000 0.000000
											CHANNELS 3 Xrotation Yrotation Zrotation
											End Site
											{
												OFFSET -0.150902 2.584198 0.152708
											}
										}
									}
								}
							}
							JOINT newVegas:Left_Sleeve
							{
								OFFSET 0.267448 -0.649796 0.577675
								CHANNELS 3 Xrotation Yrotation Zrotation
								End Site
								{
									OFFSET 0.000000 15.991241 0.000000
								}
							}
							JOINT newVegas:Left_CapeC
							{
								OFFSET 15.715958 -8.608795 -6.935905
								CHANNELS 3 Xrotation Yrotation Zrotation
								JOINT newVegas:Left_CapeC1
								{
									OFFSET 0.000000 -8.688499 0.000000
									CHANNELS 3 Xrotation Yrotation Zrotation
									End Site
									{
										OFFSET 0.000000 8.688499 0.000000
									}
								}
							}
						}
						JOINT newVegas:Left_CapeB
						{
							OFFSET 26.118385 -8.608795 -7.079235
							CHANNELS 3 Xrotation Yrotation Zrotation
							JOINT newVegas:Left_CapeB1
							{
								OFFSET 0.000000 -8.688499 0.000000
								CHANNELS 3 Xrotation Yrotation Zrotation
								End Site
								{
									OFFSET 0.000000 8.688499 0.000000
								}
							}
						}
						JOINT newVegas:Left_CapeA
						{
							OFFSET 5.115639 -8.608795 -10.395809
							CHANNELS 3 Xrotation Yrotation Zrotation
							JOINT newVegas:Left_CapeA1
							{
								OFFSET 0.000000 -8.688499 0.000000
								CHANNELS 3 Xrotation Yrotation Zrotation
								End Site
								{
									OFFSET 0.000000 8.688499 0.000000
								}
							}
						}
					}
				}
				JOINT newVegas:RightShoulder
				{
					OFFSET -15.263000 10.923401 -0.547700
					CHANNELS 3 Xrotation Yrotation Zrotation
					JOINT newVegas:RightArm
					{
						OFFSET -25.438599 -2.830597 -13.032500
						CHANNELS 3 Xrotation Yrotation Zrotation
						JOINT newVegas:RightForeArm
						{
							OFFSET -29.960503 0.000000 0.000000
							CHANNELS 3 Xrotation Yrotation Zrotation
							JOINT newVegas:RightHand
							{
								OFFSET -27.849251 0.000000 0.000000
								CHANNELS 3 Xrotation Yrotation Zrotation
								JOINT newVegas:RightHandThumb1
								{
									OFFSET -4.487587 -3.305161 6.305391
									CHANNELS 3 Xrotation Yrotation Zrotation
									JOINT newVegas:RightHandThumb2
									{
										OFFSET -5.480453 -3.164139 3.164143
										CHANNELS 3 Xrotation Yrotation Zrotation
										JOINT newVegas:RightHandThumb3
										{
											OFFSET -5.159721 -2.978973 2.978967
											CHANNELS 3 Xrotation Yrotation Zrotation
											End Site
											{
												OFFSET -2.494507 5.926697 1.738678
											}
										}
									}
								}
								JOINT newVegas:RightHandIndex1
								{
									OFFSET -18.578728 -0.527832 5.208049
									CHANNELS 3 Xrotation Yrotation Zrotation
									JOINT newVegas:RightHandIndex2
									{
										OFFSET -3.192009 0.000000 0.000000
										CHANNELS 3 Xrotation Yrotation Zrotation
										JOINT newVegas:RightHandIndex3
										{
											OFFSET -3.835129 0.000000 0.000000
											CHANNELS 3 Xrotation Yrotation Zrotation
											End Site
											{
												OFFSET 0.034599 3.816971 0.371180
											}
										}
									}
								}
								JOINT newVegas:RightHandMiddle1
								{
									OFFSET -18.476105 0.000000 0.000000
									CHANNELS 3 Xrotation Yrotation Zrotation
									JOINT newVegas:RightHandMiddle2
									{
										OFFSET -3.324875 0.000000 0.000000
										CHANNELS 3 Xrotation Yrotation Zrotation
										JOINT newVegas:RightHandMiddle3
										{
											OFFSET -4.596550 0.000000 0.000000
											CHANNELS 3 Xrotation Yrotation Zrotation
											End Site
											{
												OFFSET -0.057701 4.578827 0.399218
											}
										}
									}
								}
								JOINT newVegas:RightHandRing1
								{
									OFFSET -17.732719 0.121887 -4.201567
									CHANNELS 3 Xrotation Yrotation Zrotation
									JOINT newVegas:RightHandRing2
									{
										OFFSET -2.733170 0.000000 0.000000
										CHANNELS 3 Xrotation Yrotation Zrotation
										JOINT newVegas:RightHandRing3
										{
											OFFSET -3.178268 0.000000 0.000000
											CHANNELS 3 Xrotation Yrotation Zrotation
											End Site
											{
												OFFSET -0.119102 3.170624 0.185394
											}
										}
									}
								}
								JOINT newVegas:RightHandPinky1
								{
									OFFSET -15.989624 -0.606689 -7.535461
									CHANNELS 3 Xrotation Yrotation Zrotation
									JOINT newVegas:RightHandPinky2
									{
										OFFSET -2.538986 0.000000 0.000000
										CHANNELS 3 Xrotation Yrotation Zrotation
										JOINT newVegas:RightHandPinky3
										{
											OFFSET -2.593102 0.000000 0.000000
											CHANNELS 3 Xrotation Yrotation Zrotation
											End Site
											{
												OFFSET 0.150902 2.584198 0.152708
											}
										}
									}
								}
							}
							JOINT newVegas:Right_CapeC
							{
								OFFSET -15.715958 -8.608795 -6.935905
								CHANNELS 3 Xrotation Yrotation Zrotation
								JOINT newVegas:Right_CapeC1
								{
									OFFSET 0.000000 -8.688499 0.000000
									CHANNELS 3 Xrotation Yrotation Zrotation
									End Site
									{
										OFFSET 0.000000 8.688499 0.000000
									}
								}
							}
							JOINT newVegas:Right_Sleeve
							{
								OFFSET -0.267448 -0.649994 0.577675
								CHANNELS 3 Xrotation Yrotation Zrotation
								End Site
								{
									OFFSET 0.000000 15.991302 0.000000
								}
							}
						}
						JOINT newVegas:Right_CapeA
						{
							OFFSET -5.115540 -8.608795 -10.395824
							CHANNELS 3 Xrotation Yrotation Zrotation
							JOINT newVegas:Right_CapeA1
							{
								OFFSET 0.000000 -8.688499 0.000000
								CHANNELS 3 Xrotation Yrotation Zrotation
								End Site
								{
									OFFSET 0.000000 8.688499 0.000000
								}
							}
						}
						JOINT newVegas:Right_CapeB
						{
							OFFSET -26.118187 -8.608795 -7.079266
							CHANNELS 3 Xrotation Yrotation Zrotation
							JOINT newVegas:Right_CapeB1
							{
								OFFSET 0.000000 -8.688499 0.000000
								CHANNELS 3 Xrotation Yrotation Zrotation
								End Site
								{
									OFFSET 0.000000 8.688499 0.000000
								}
							}
						}
					}
				}
				JOINT newVegas:Left_Collar
				{
					OFFSET 18.625099 8.655502 8.828100
					CHANNELS 3 Xrotation Yrotation Zrotation
					JOINT newVegas:Left_Collar1
					{
						OFFSET 14.783401 10.540405 -1.259500
						CHANNELS 3 Xrotation Yrotation Zrotation
						End Site
						{
							OFFSET 0.000000 18.199875 0.000000
						}
					}
				}
				JOINT newVegas:Collar_Back
				{
					OFFSET 0.000000 15.630707 -20.132601
					CHANNELS 3 Xrotation Yrotation Zrotation
					End Site
					{
						OFFSET 0.000000 22.523010 0.000000
					}
				}
				JOINT newVegas:Left_Peck
				{
					OFFSET 17.239599 -5.132599 25.482599
					CHANNELS 3 Xrotation Yrotation Zrotation
					End Site
					{
						OFFSET 0.000000 22.523010 0.000000
					}
				}
				JOINT newVegas:Right_Peck
				{
					OFFSET -17.239599 -5.132202 25.482599
					CHANNELS 3 Xrotation Yrotation Zrotation
					End Site
					{
						OFFSET 0.000000 22.523010 0.000000
					}
				}
				JOINT newVegas:Right_Collar
				{
					OFFSET -18.625099 8.655792 8.828100
					CHANNELS 3 Xrotation Yrotation Zrotation
					JOINT newVegas:Right_Collar1
					{
						OFFSET -14.783401 10.539993 -1.259500
						CHANNELS 3 Xrotation Yrotation Zrotation
						End Site
						{
							OFFSET 0.000000 18.199631 0.000000
						}
					}
				}
			}
		}
		JOINT newVegas:Belly
		{
			OFFSET 0.000000 -6.540398 9.014299
			CHANNELS 3 Xrotation Yrotation Zrotation
			End Site
			{
				OFFSET 0.000000 11.566666 0.000000
			}
		}
	}
	JOINT newVegas:ElvisFacialAnim_Joint
	{
		OFFSET 1.000000 -95.330101 -8.825800
		CHANNELS 3 Xrotation Yrotation Zrotation
		End Site
		{
			OFFSET 0.000000 35.315800 0.000000
		}
	}
}
MOTION
Frames: 4
Frame Time: 0.033333
-0.327691 93.645714 5.359519 3.623955 3.088092 -0.103363 0.000000 -0.000000 -0.000000 5.494821 13.900839 -3.754716 16.095399 2.595088 -6.001970 -13.325214 29.904259 -0.039100 0.000001 -0.000000 0.000000 -0.000002 -0.000001 0.000002 -51.101133 -0.332600 2.000536 40.990841 -0.317910 -3.879660 20.912834 -9.062011 -9.075959 0.000002 -0.000000 0.000001 -0.000001 0.000000 -0.000000 6.699665 -3.702389 4.230158 1.109653 -5.129164 1.681161 1.061698 -4.049180 1.640073 -0.574104 3.103482 -0.536776 -0.574102 3.103478 -0.536775 -0.000000 -0.000000 0.000000 -0.574038 3.103468 -0.536776 -0.574101 3.103487 -0.536774 -0.000001 0.000000 -0.000000 -0.000000 -0.000000 -0.000000 1.422346 -4.649742 -8.774321 23.640982 -44.809234 -33.855851 -0.000101 -87.819690 -0.000146 -2.601977 -17.113602 13.396200 -1.235255 9.688545 11.552249 6.631711 17.444330 1.797772 -0.000001 0.000003 -0.000001 0.137420 3.285330 -9.067922 1.690665 4.117752 -44.629679 0.000002 -0.000004 0.000002 0.233777 3.760627 -13.807414 4.337392 5.652519 -74.982117 -0.000000 0.000001 -0.000001 0.488940 4.550082 -21.926857 6.439863 5.821459 -95.785576 0.000000 0.000001 0.000000 1.026152 5.573867 -33.265514 3.860267 5.503042 -70.076395 0.000001 -0.000002 -0.000000 0.000001 0.000004 0.000002 0.000001 0.000004 0.000002 0.000001 0.000004 0.000001 -0.000000 0.000000 -0.000001 0.000000 -0.000001 -0.000001 -0.000000 0.000000 -0.000001 0.000001 0.000000 -0.000000 3.478520 -7.427524 9.775263 8.348810 -2.289077 46.062505 -0.000000 60.138443 -0.000001 -22.627081 16.715828 -12.742263 -3.016907 -2.394663 -6.782820 7.250056 -21.941284 -2.706089 0.000005 -0.000007 -0.000001 0.343722 -3.915068 20.497340 1.892681 -3.749366 53.557026 -0.000001 0.000004 -0.000001 0.773478 -4.777064 32.368202 4.279458 -4.641837 85.342988 -0.000004 -0.000000 0.000002 1.647900 -5.791444 48.916295 5.253890 -4.618844 97.369483 0.000000 0.000001 0.000001 2.659505 -6.459677 63.889870 3.053010 -4.372735 69.831629 0.000001 -0.000000 0.000001 -0.000002 0.000003 0.000002 -0.000001 -0.000001 -0.000001 -0.000002 0.000002 0.000001 0.000001 0.000001 -0.000000 0.000001 0.000002 -0.000000 0.000001 0.000001 -0.000000 0.000001 0.000002 -0.000000 0.000001 -0.000000 0.000000 0.000001 -0.000000 0.000000 0.000001 -0.000000 0.000000 0.000001 -0.000000 0.000000 0.000001 -0.000000 0.000000 0.000001 -0.000000 0.000000 0.000001 -0.000000 0.000000 -0.000001 0.000000 0.000000 0.000000 -0.000000 -0.000000 
-7.977755 91.939987 4.785274 3.518614 1.779252 -0.109774 -0.000000 0.000000 -0.000000 3.615225 11.349410 2.358579 22.452469 3.312632 -6.263575 -21.650400 30.636557 -6.064799 0.000000 -0.000003 0.000000 0.000001 0.000001 0.000000 -52.504327 2.899403 -3.970815 44.062158 1.536891 -5.994437 18.531053 -4.897932 0.249989 -0.000000 -0.000000 0.000001 -0.000000 0.000000 -0.000001 6.493442 -1.576307 4.112926 1.410714 -4.211852 1.469021 1.369755 -3.139014 1.407898 -0.572046 3.037759 -0.517785 -0.572032 3.037761 -0.517781 0.000001 0.000000 -0.000000 -0.571901 3.037757 -0.517789 -0.572188 3.037780 -0.517780 -0.000001 0.000000 0.000000 0.000001 0.000000 -0.000000 1.459147 -3.808893 -8.701851 19.528551 -34.077149 -40.058995 -0.000123 -82.111913 -0.000128 3.983423 -17.211279 10.983761 -1.803892 8.126875 11.715782 6.631711 17.444329 1.797767 0.000005 0.000003 -0.000003 0.123369 3.192603 -8.151978 1.625168 4.050457 -43.709874 -0.000001 0.000000 0.000001 0.192343 3.580079 -11.997121 3.806655 5.483428 -69.516340 0.000001 -0.000000 0.000002 0.390751 4.289139 -19.199307 5.806253 5.850866 -89.560412 -0.000001 -0.000001 0.000003 0.741560 5.093383 -27.793722 3.343269 5.288066 -64.582464 0.000001 -0.000003 -0.000000 0.000001 0.000003 -0.000000 0.000001 0.000003 -0.000000 0.000000 0.000003 0.000000 0.000000 0.000003 0.000002 0.000001 0.000002 0.000001 0.000000 0.000003 0.000002 -0.000000 0.000003 0.000003 3.656382 -6.229727 9.698074 3.748043 4.140435 46.285439 -0.000011 59.825408 0.000008 -23.284555 8.254278 -13.548542 -3.016905 -2.394663 -6.782824 7.250057 -21.941284 -2.706087 -0.000000 -0.000000 -0.000001 0.343722 -3.915071 20.497329 1.892682 -3.749364 53.557026 -0.000001 0.000002 0.000000 0.773479 -4.777066 32.368202 4.279458 -4.641836 85.342981 -0.000002 0.000000 0.000000 1.647900 -5.791438 48.916299 5.253890 -4.618854 97.369483 0.000002 0.000002 0.000001 2.659508 -6.459683 63.889863 3.053008 -4.372736 69.831629 0.000000 0.000003 -0.000000 0.000000 0.000006 0.000000 0.000000 0.000000 -0.000002 0.000000 0.000006 -0.000001 0.000001 0.000003 0.000002 0.000001 0.000003 0.000002 0.000001 0.000003 0.000002 0.000001 0.000002 0.000002 -0.000000 -0.000001 0.000000 -0.000000 -0.000001 0.000000 -0.000000 -0.000001 0.000000 -0.000000 -0.000001 0.000000 -0.000000 -0.000001 0.000000 -0.000000 -0.000001 0.000000 -0.000000 -0.000001 0.000000 -0.000001 0.000000 -0.000000 -0.000000 0.000000 -0.000000 
-15.339584 90.658875 4.793285 3.281264 -0.608714 1.061970 -0.000000 -0.000000 -0.000000 0.080793 10.800585 8.673450 28.830495 3.339268 -6.096348 -16.899205 31.561000 -15.820960 0.000000 0.000001 0.000000 -0.000001 0.000000 0.000000 -52.784020 6.788804 -9.728392 45.941570 3.238172 -8.650860 15.868322 -1.797642 9.584945 -0.000000 -0.000000 0.000000 -0.000001 -0.000000 0.000000 6.227920 0.189851 3.064406 1.371235 -3.369942 1.359948 1.352805 -2.297219 1.288493 -0.515472 3.006221 -0.494163 -0.515476 3.006220 -0.494163 -0.000001 0.000000 0.000001 -0.515475 3.006219 -0.494163 -0.515472 3.006225 -0.494163 -0.000001 0.000000 -0.000000 -0.000001 0.000000 0.000001 1.490891 -2.989387 -8.435275 21.429657 -20.731846 -42.335350 0.000112 -83.401084 0.000134 4.823754 -17.715019 11.649009 -2.423292 6.455334 11.867037 6.631711 17.444327 1.797770 0.000001 -0.000000 -0.000005 0.109924 3.092874 -7.169428 1.556095 3.977153 -42.723209 0.000000 -0.000001 -0.000001 0.154266 3.385005 -10.055481 3.258233 5.246977 -63.656284 -0.000002 0.000002 0.000001 0.299414 4.004331 -16.274555 5.127265 5.806269 -82.881784 -0.000001 -0.000001 -0.000001 0.489065 4.550418 -21.930412 2.814550 5.003797 -58.692943 -0.000002 -0.000002 0.000000 -0.000002 0.000003 0.000001 -0.000002 0.000003 0.000001 -0.000002 0.000003 0.000001 0.000000 0.000001 -0.000000 0.000000 0.000000 0.000002 0.000000 0.000001 -0.000000 -0.000001 0.000000 -0.000000 3.661717 -4.673955 8.055289 1.798779 12.392356 47.159133 -0.000001 61.343951 0.000006 -21.431969 -0.125909 -14.365911 -3.016907 -2.394662 -6.782823 7.250057 -21.941281 -2.706090 0.000001 -0.000006 -0.000001 0.343721 -3.915068 20.497328 1.892679 -3.749364 53.557026 -0.000001 0.000000 -0.000002 0.773481 -4.777071 32.368198 4.279458 -4.641844 85.342981 -0.000001 0.000000 0.000001 1.647902 -5.791445 48.916292 5.253890 -4.618846 97.369483 -0.000001 0.000001 0.000001 2.659500 -6.459682 63.889863 3.053008 -4.372738 69.831636 -0.000001 -0.000000 0.000001 0.000003 -0.000002 -0.000000 0.000003 -0.000002 0.000000 0.000003 -0.000002 0.000001 0.000000 0.000003 -0.000000 0.000000 0.000003 0.000000 0.000000 0.000003 -0.000000 0.000000 0.000002 0.000000 0.000001 -0.000000 0.000001 0.000001 -0.000000 0.000001 0.000001 -0.000000 0.000001 0.000001 -0.000000 0.000001 0.000001 -0.000000 0.000001 0.000001 -0.000000 0.000001 0.000001 -0.000000 0.000001 -0.000000 0.000000 0.000000 -0.000000 -0.000000 -0.000000 
-23.091822 90.104858 5.461820 3.749028 -2.069158 2.145457 -0.000000 0.000000 0.000000 -2.586935 11.003256 15.776301 28.741364 2.035321 -6.204070 -3.714953 31.142186 -24.704299 0.000001 0.000001 -0.000000 0.000001 -0.000002 -0.000001 -52.452291 10.056674 -13.961634 45.821434 7.326751 -9.477652 15.979730 0.102026 15.105894 -0.000001 0.000000 -0.000000 0.000000 0.000000 -0.000001 5.393351 1.197429 2.221493 0.908227 -2.855911 1.490014 0.906665 -1.781294 1.417018 -0.443140 2.993295 -0.503211 -0.443123 2.993295 -0.503203 0.000001 -0.000000 -0.000001 -0.443070 2.993308 -0.503216 -0.443221 2.993295 -0.503206 -0.000000 0.000000 -0.000000 0.000001 -0.000000 -0.000001 1.518280 -1.706387 -7.119271 28.503103 -11.064564 -45.221931 0.000854 -89.184348 0.000720 0.433180 -18.859846 14.721488 -2.854413 5.310711 11.956255 6.631706 17.444330 1.797766 -0.000000 0.000001 -0.000006 0.101706 3.024328 -6.495160 1.509420 3.926149 -42.046160 -0.000000 -0.000001 0.000000 0.131966 3.250458 -8.723244 2.897349 5.053005 -59.637360 0.000001 0.000002 0.000000 0.245231 3.806372 -14.268118 4.666454 5.730270 -78.299322 -0.000001 0.000001 0.000000 0.348701 4.164218 -17.910363 2.470072 4.778120 -54.654194 -0.000000 -0.000002 0.000000 -0.000000 0.000001 0.000001 -0.000000 0.000001 0.000001 -0.000001 0.000001 0.000001 -0.000003 0.000000 -0.000002 -0.000002 -0.000001 -0.000003 -0.000003 0.000000 -0.000002 -0.000004 -0.000001 -0.000002 3.655727 -3.574590 5.720530 1.344779 22.061093 48.818763 0.000018 65.150039 -0.000022 -20.084754 -2.748963 -16.432747 -3.016909 -2.394655 -6.782824 7.250056 -21.941284 -2.706087 0.000001 -0.000003 -0.000001 0.343720 -3.915070 20.497333 1.892682 -3.749361 53.557023 -0.000000 0.000001 0.000002 0.773482 -4.777066 32.368198 4.279458 -4.641835 85.342981 -0.000000 -0.000001 0.000003 1.647902 -5.791441 48.916299 5.253888 -4.618848 97.369483 -0.000001 0.000001 -0.000000 2.659506 -6.459677 63.889863 3.053013 -4.372742 69.831636 -0.000000 0.000003 0.000002 -0.000004 -0.000003 0.000002 -0.000002 0.000000 -0.000000 -0.000004 -0.000003 0.000001 0.000001 0.000001 0.000004 0.000001 0.000002 0.000004 0.000001 0.000001 0.000004 0.000001 0.000002 0.000004 0.000001 0.000000 -0.000000 0.000001 0.000000 -0.000000 0.000001 0.000000 -0.000000 0.000001 0.000000 -0.000000 0.000001 0.000000 -0.000000 0.000001 0.000000 -0.000000 0.000001 0.000000 -0.000000 0.000001 0.000000 0.000000 -0.000000 0.000000 0.000000 
